# xmcd CD database file
#
# Track frame offsets:
#	150
#	15315
#	25668
#	46302
#	62186
#	73933
#	92872
#	112670
#	129906
#	143115
#	156654
#	168913
#	184999
#
# Disc length: 2727 seconds
#
# Revision: 1
# Processed by: cddbd v1.4PL0 Copyright (c) Steve Scherf et al.
# Submitted via: CDex 1.50
#
DISCID=ac0aa50d
DTITLE=Junkyard Dogs - Bow Wow
DYEAR=2002
DGENRE=Revival
TTITLE0=I'm a Doggy
TTITLE1=You Don't Love Me
TTITLE2=Vegas Slut Machine
TTITLE3=This Bird's Gonna Fly
TTITLE4=Love Dogs
TTITLE5=Satisfy Me
TTITLE6=I Cry For You
TTITLE7=Big Enough to Do
TTITLE8=L'ptit Baveux
TTITLE9=Goddamn Rock and Roll
TTITLE10=Drunk 
TTITLE11=Behind The Bar
TTITLE12=The Monkey
EXTD=YEAR: 2002
EXTT0=
EXTT1=
EXTT2=
EXTT3=
EXTT4=
EXTT5=
EXTT6=
EXTT7=
EXTT8=
EXTT9=
EXTT10=
EXTT11=
EXTT12=
PLAYORDER=
